#tb 0: 83333/5000000
#media_type 0: video
#codec_id 0: rawvideo
#dimensions 0: 640x480
#sar 0: 0/1
0,          0,          0,        1,   460800, 0x7731dd2f
0,          2,          2,        1,   460800, 0x944b8c64
0,          3,          3,        1,   460800, 0xbe833041
0,          4,          4,        1,   460800, 0xbe95d96a
0,          5,          5,        1,   460800, 0xfe7ea5e6
0,          6,          6,        1,   460800, 0x381743c7
0,          7,          7,        1,   460800, 0x63fcc2e9
0,          8,          8,        1,   460800, 0x79574960
0,          9,          9,        1,   460800, 0xdab9e18a
0,         10,         10,        1,   460800, 0xd88e8fe8
